<svg xmlns="http://www.w3.org/2000/svg" fill="none" viewBox="6.5329125 15.986159169550174 511.215 123.01038062283737" style="max-height: 500px" width="511.215" height="123.01038062283737">
<path fill="url(#paint0_linear_52_1654)" d="M161.168 98.312V90.928H169.54C170.961 90.928 172.019 90.564 172.712 89.836C173.405 89.108 173.752 88.0507 173.752 86.664C173.752 85.2773 173.405 84.2373 172.712 83.544C172.019 82.816 170.961 82.452 169.54 82.452H161.168V76.732H169.228C171.897 76.732 174.289 77.0613 176.404 77.72C178.519 78.344 180.183 79.384 181.396 80.84C182.609 82.296 183.216 84.2373 183.216 86.664V87.392C183.216 89.68 182.679 91.6387 181.604 93.268C180.529 94.8973 178.952 96.1453 176.872 97.012C174.792 97.8787 172.244 98.312 169.228 98.312H161.168ZM152.848 98.312V59.728H162.208V98.312H152.848ZM161.168 80.996V75.276H168.136C169.557 75.276 170.58 74.9293 171.204 74.236C171.863 73.508 172.192 72.5027 172.192 71.22C172.192 69.9027 171.863 68.8973 171.204 68.204C170.58 67.476 169.557 67.112 168.136 67.112H161.168V59.728H167.72C172.157 59.728 175.589 60.664 178.016 62.536C180.443 64.3733 181.656 67.008 181.656 70.44V71.22C181.656 73.612 181.032 75.536 179.784 76.992C178.571 78.4133 176.907 79.436 174.792 80.06C172.712 80.684 170.355 80.996 167.72 80.996H161.168ZM194.359 98V69.296H201.847V81.776H201.743C201.743 77.7547 202.575 74.6 204.239 72.312C205.938 70.024 208.364 68.88 211.519 68.88H212.663V76.992H210.479C208.364 76.992 206.718 77.564 205.539 78.708C204.395 79.852 203.823 81.4987 203.823 83.648V98H194.359ZM231.478 98.208V90.252H238.55C240.318 90.252 241.913 89.992 243.334 89.472C244.755 88.9173 245.969 88.1547 246.974 87.184C247.979 86.1787 248.742 84.9827 249.262 83.596C249.782 82.1747 250.042 80.6147 250.042 78.916C250.042 77.148 249.782 75.5707 249.262 74.184C248.742 72.7973 247.979 71.6187 246.974 70.648C245.969 69.6773 244.755 68.9493 243.334 68.464C241.913 67.944 240.318 67.684 238.55 67.684H231.478V59.728H238.082C241.514 59.728 244.513 60.2307 247.078 61.236C249.643 62.2413 251.793 63.6107 253.526 65.344C255.259 67.0773 256.542 69.0707 257.374 71.324C258.241 73.5427 258.674 75.8827 258.674 78.344V79.488C258.674 81.776 258.241 84.0467 257.374 86.3C256.542 88.5187 255.259 90.5293 253.526 92.332C251.793 94.1 249.643 95.5213 247.078 96.596C244.513 97.6707 241.514 98.208 238.082 98.208H231.478ZM223.99 98.208V59.728H232.518V98.208H223.99ZM271.219 98V69.504H279.539V98H271.219ZM267.423 75.64V69.504H279.539V75.64H267.423ZM274.443 66.696C272.883 66.696 271.722 66.2973 270.959 65.5C270.231 64.668 269.867 63.628 269.867 62.38C269.867 61.0973 270.231 60.0573 270.959 59.26C271.722 58.428 272.883 58.012 274.443 58.012C276.003 58.012 277.147 58.428 277.875 59.26C278.638 60.0573 279.019 61.0973 279.019 62.38C279.019 63.628 278.638 64.668 277.875 65.5C277.147 66.2973 276.003 66.696 274.443 66.696ZM310.166 98V89.576H308.762V80.424C308.762 78.968 308.416 77.876 307.722 77.148C307.029 76.42 305.92 76.056 304.394 76.056C303.632 76.056 302.626 76.0733 301.378 76.108C300.13 76.1427 298.848 76.1947 297.53 76.264C296.213 76.3333 295.017 76.4027 293.942 76.472V69.452C294.74 69.3827 295.676 69.3133 296.75 69.244C297.825 69.1747 298.934 69.1227 300.078 69.088C301.222 69.0533 302.297 69.036 303.302 69.036C306.214 69.036 308.658 69.452 310.634 70.284C312.645 71.116 314.17 72.3813 315.21 74.08C316.25 75.744 316.77 77.8933 316.77 80.528V98H310.166ZM301.066 98.728C299.021 98.728 297.218 98.364 295.658 97.636C294.133 96.908 292.937 95.868 292.07 94.516C291.204 93.1293 290.77 91.4827 290.77 89.576C290.77 87.496 291.308 85.7973 292.382 84.48C293.457 83.128 294.965 82.14 296.906 81.516C298.848 80.8573 301.084 80.528 303.614 80.528H309.698V85.156H303.562C302.106 85.156 300.98 85.52 300.182 86.248C299.42 86.9413 299.038 87.8947 299.038 89.108C299.038 90.252 299.42 91.188 300.182 91.916C300.98 92.6093 302.106 92.956 303.562 92.956C304.498 92.956 305.33 92.8 306.058 92.488C306.821 92.1413 307.445 91.5693 307.93 90.772C308.416 89.9747 308.693 88.8653 308.762 87.444L310.738 89.524C310.565 91.5 310.08 93.164 309.282 94.516C308.52 95.868 307.445 96.908 306.058 97.636C304.706 98.364 303.042 98.728 301.066 98.728ZM340.781 109.336C339.395 109.336 337.973 109.284 336.517 109.18C335.061 109.076 333.727 108.937 332.513 108.764V101.744C333.727 101.917 335.061 102.056 336.517 102.16C338.008 102.299 339.36 102.368 340.573 102.368C342.827 102.368 344.647 102.108 346.033 101.588C347.455 101.068 348.495 100.271 349.153 99.196C349.812 98.156 350.141 96.804 350.141 95.14V89.472L351.649 86.144C351.58 88.6747 351.077 90.8413 350.141 92.644C349.24 94.4467 347.975 95.8333 346.345 96.804C344.716 97.74 342.775 98.208 340.521 98.208C338.58 98.208 336.812 97.8613 335.217 97.168C333.657 96.44 332.323 95.4347 331.213 94.152C330.104 92.8693 329.255 91.3787 328.665 89.68C328.076 87.9467 327.781 86.0747 327.781 84.064V82.868C327.781 80.8573 328.093 78.9853 328.717 77.252C329.341 75.5187 330.243 74.0107 331.421 72.728C332.6 71.4453 334.004 70.4573 335.633 69.764C337.263 69.036 339.065 68.672 341.041 68.672C343.329 68.672 345.305 69.1747 346.969 70.18C348.668 71.1853 350.003 72.6587 350.973 74.6C351.944 76.5413 352.464 78.8813 352.533 81.62L351.389 81.932V69.504H357.993V94.62C357.993 98.1213 357.369 100.947 356.121 103.096C354.873 105.245 352.967 106.823 350.401 107.828C347.871 108.833 344.664 109.336 340.781 109.336ZM343.121 91.188C344.404 91.188 345.565 90.9107 346.605 90.356C347.645 89.7667 348.46 88.9347 349.049 87.86C349.673 86.7853 349.985 85.4853 349.985 83.96V82.452C349.985 80.9613 349.656 79.7133 348.997 78.708C348.373 77.668 347.541 76.888 346.501 76.368C345.461 75.8133 344.352 75.536 343.173 75.536C341.787 75.536 340.556 75.8653 339.481 76.524C338.407 77.1827 337.575 78.1013 336.985 79.28C336.396 80.4587 336.101 81.8453 336.101 83.44C336.101 85.0693 336.396 86.4733 336.985 87.652C337.609 88.796 338.441 89.68 339.481 90.304C340.556 90.8933 341.769 91.188 343.121 91.188ZM370.918 98V69.504H377.522V81.724H377.366C377.366 77.7027 378.215 74.6 379.914 72.416C381.647 70.232 384.143 69.14 387.402 69.14H388.494V76.316H386.414C384.126 76.316 382.358 76.94 381.11 78.188C379.862 79.4013 379.238 81.1693 379.238 83.492V98H370.918ZM415.533 98V89.576H414.129V80.424C414.129 78.968 413.783 77.876 413.089 77.148C412.396 76.42 411.287 76.056 409.761 76.056C408.999 76.056 407.993 76.0733 406.745 76.108C405.497 76.1427 404.215 76.1947 402.897 76.264C401.58 76.3333 400.384 76.4027 399.309 76.472V69.452C400.107 69.3827 401.043 69.3133 402.117 69.244C403.192 69.1747 404.301 69.1227 405.445 69.088C406.589 69.0533 407.664 69.036 408.669 69.036C411.581 69.036 414.025 69.452 416.001 70.284C418.012 71.116 419.537 72.3813 420.577 74.08C421.617 75.744 422.137 77.8933 422.137 80.528V98H415.533ZM406.433 98.728C404.388 98.728 402.585 98.364 401.025 97.636C399.5 96.908 398.304 95.868 397.437 94.516C396.571 93.1293 396.137 91.4827 396.137 89.576C396.137 87.496 396.675 85.7973 397.749 84.48C398.824 83.128 400.332 82.14 402.273 81.516C404.215 80.8573 406.451 80.528 408.981 80.528H415.065V85.156H408.929C407.473 85.156 406.347 85.52 405.549 86.248C404.787 86.9413 404.405 87.8947 404.405 89.108C404.405 90.252 404.787 91.188 405.549 91.916C406.347 92.6093 407.473 92.956 408.929 92.956C409.865 92.956 410.697 92.8 411.425 92.488C412.188 92.1413 412.812 91.5693 413.297 90.772C413.783 89.9747 414.06 88.8653 414.129 87.444L416.105 89.524C415.932 91.5 415.447 93.164 414.649 94.516C413.887 95.868 412.812 96.908 411.425 97.636C410.073 98.364 408.409 98.728 406.433 98.728ZM434.916 98V69.504H441.52V81.776H441.052C441.052 78.864 441.416 76.4373 442.144 74.496C442.872 72.5547 443.964 71.0987 445.42 70.128C446.876 69.1227 448.662 68.62 450.776 68.62H451.14C453.29 68.62 455.075 69.1227 456.496 70.128C457.952 71.0987 459.044 72.5547 459.772 74.496C460.535 76.4373 460.916 78.864 460.916 81.776H458.888C458.888 78.864 459.252 76.4373 459.98 74.496C460.743 72.5547 461.852 71.0987 463.308 70.128C464.764 69.1227 466.55 68.62 468.664 68.62H469.028C471.178 68.62 472.98 69.1227 474.436 70.128C475.927 71.0987 477.054 72.5547 477.816 74.496C478.579 76.4373 478.96 78.864 478.96 81.776V98H470.64V81.308C470.64 79.748 470.224 78.4827 469.392 77.512C468.595 76.5413 467.451 76.056 465.96 76.056C464.47 76.056 463.291 76.5587 462.424 77.564C461.558 78.5347 461.124 79.8347 461.124 81.464V98H452.752V81.308C452.752 79.748 452.336 78.4827 451.504 77.512C450.707 76.5413 449.58 76.056 448.124 76.056C446.599 76.056 445.403 76.5587 444.536 77.564C443.67 78.5347 443.236 79.8347 443.236 81.464V98H434.916ZM508.985 98V89.576H507.581V80.424C507.581 78.968 507.234 77.876 506.541 77.148C505.848 76.42 504.738 76.056 503.213 76.056C502.45 76.056 501.445 76.0733 500.197 76.108C498.949 76.1427 497.666 76.1947 496.349 76.264C495.032 76.3333 493.836 76.4027 492.761 76.472V69.452C493.558 69.3827 494.494 69.3133 495.569 69.244C496.644 69.1747 497.753 69.1227 498.897 69.088C500.041 69.0533 501.116 69.036 502.121 69.036C505.033 69.036 507.477 69.452 509.453 70.284C511.464 71.116 512.989 72.3813 514.029 74.08C515.069 75.744 515.589 77.8933 515.589 80.528V98H508.985ZM499.885 98.728C497.84 98.728 496.037 98.364 494.477 97.636C492.952 96.908 491.756 95.868 490.889 94.516C490.022 93.1293 489.589 91.4827 489.589 89.576C489.589 87.496 490.126 85.7973 491.201 84.48C492.276 83.128 493.784 82.14 495.725 81.516C497.666 80.8573 499.902 80.528 502.433 80.528H508.517V85.156H502.381C500.925 85.156 499.798 85.52 499.001 86.248C498.238 86.9413 497.857 87.8947 497.857 89.108C497.857 90.252 498.238 91.188 499.001 91.916C499.798 92.6093 500.925 92.956 502.381 92.956C503.317 92.956 504.149 92.8 504.877 92.488C505.64 92.1413 506.264 91.5693 506.749 90.772C507.234 89.9747 507.512 88.8653 507.581 87.444L509.557 89.524C509.384 91.5 508.898 93.164 508.101 94.516C507.338 95.868 506.264 96.908 504.877 97.636C503.525 98.364 501.861 98.728 499.885 98.728Z"/>
<path stroke-width="2" stroke="url(#paint1_linear_52_1654)" d="M116.514 38.539C105.24 26.4324 88.7695 18.8001 70.4231 18.8001C36.4397 18.8001 8.89062 44.9874 8.89062 77.2911C8.89062 109.595 36.4397 135.782 70.4231 135.782C89.5415 135.782 106.623 127.494 117.909 114.491"/>
<path stroke-width="2" stroke="url(#paint2_linear_52_1654)" d="M116.514 38.539C105.24 26.4324 88.7695 18.8001 70.4231 18.8001C36.4397 18.8001 8.89062 44.9874 8.89062 77.2911C8.89062 109.595 36.4397 135.782 70.4231 135.782C89.5415 135.782 106.623 127.494 117.909 114.491"/>
<path stroke-width="2" stroke="#1ABC9C" d="M26.4573 35.7144C71.359 31.6683 116.28 81.2685 99.6684 128.763"/>
<path stroke-width="2" stroke="#1ABC9C" d="M49.4712 22.5454C89.1417 21.379 131.864 69.3529 119.789 111.918"/>
<path stroke-width="2" stroke="#1ABC9C" d="M31.329 32.5561C82.3553 23.8089 128.176 73.0214 104.816 125.956"/>
<path stroke-width="2" stroke="#1ABC9C" d="M36.3661 28.7996C97.4983 11.9481 144.365 59.9221 109.495 121.744"/>
<path stroke-width="2" stroke="#1ABC9C" d="M21.5247 41.7286C53.3142 46.639 94.914 95.1593 91.5529 130.732"/>
<path stroke-width="2" stroke="#1ABC9C" d="M13.5699 55.2985C48.0053 54.8919 85.853 97.5792 76.0264 134.679"/>
<path stroke-width="2" stroke="#1ABC9C" d="M9.35857 66.9967C33.1718 70.9115 64.6317 107.665 62.3694 134.372"/>
<path stroke-width="2" stroke="#1ABC9C" d="M9.82652 86.6496C24.3029 90.1267 44.8104 114.361 44.6203 130.871"/>
<path stroke-width="2" stroke="#1ABC9C" d="M123.992 48.2861C127.225 57.3539 130.65 82.647 129.616 93.2006"/>
<path stroke-width="2" stroke="#1ABC9C" d="M11.5116 60.4384C10.601 70.3241 13.6129 96.4807 17.3133 106.771"/>
<path stroke-width="2" stroke="#1ABC9C" d="M116.046 37.9852C107.652 53.247 111.165 91.3945 124.483 105.365"/>
<path stroke-width="2" stroke="#1ABC9C" d="M41.086 27.2331C31.6131 65.5166 69.2976 119.582 113.238 118.937"/>
<path stroke-width="2" stroke="#1ABC9C" d="M24.2529 38.4531C8.81357 81.4769 45.8244 136.197 96.5128 130.293"/>
<path stroke-width="2" stroke="#1ABC9C" d="M26.8167 35.576C18.9519 73.093 57.462 127.863 100.136 128.763"/>
<path stroke-width="2" stroke="#1ABC9C" d="M43.5172 24.8832C47.2423 52.7904 86.5548 105.597 115.688 116.61"/>
<path stroke-width="2" stroke="#1ABC9C" d="M67.3816 19.268C62.7393 46.967 88.7786 102.432 116.804 115.981"/>
<path stroke-width="2" stroke="#1ABC9C" d="M79.2547 19.6569C73.0389 45.5237 96.1156 95.344 123.533 106.303"/>
<path stroke-width="2" stroke="#1ABC9C" d="M106.534 31.2887C98.0877 50.1945 102.929 97.9374 117.45 115.661"/>
<path stroke-width="2" stroke="#1ABC9C" d="M22.1064 41.3064C8.96742 60.3837 13.0895 107.037 32.7549 123.616"/>
<path stroke-width="2" stroke="#1ABC9C" d="M108.798 31.5129C125.368 46.5422 133.065 92.1776 119.322 112.854"/>
<path stroke-width="2" stroke="#1ABC9C" d="M65.9778 18.8001C28.5851 34.3783 10.7273 95.452 41.3239 128.691"/>
<path stroke-width="2" stroke="#1ABC9C" d="M93.9396 23.197C50.9911 37.8918 31.7012 100.312 67.8909 135.79"/>
<path stroke-width="2" stroke="#1ABC9C" d="M106.22 29.5624C71.8629 44.6875 55.0054 102.906 82.7324 134.253"/>
<path stroke-width="2" stroke="#1ABC9C" d="M117.918 39.3889C93.6996 53.7111 79.7895 104.234 97.5963 129.969"/>
<path stroke-width="2" stroke="#1ABC9C" d="M42.5069 25.2627C24.7625 50.6941 30.4506 112.536 57.1128 134.337"/>
<path stroke-width="2" stroke="#1ABC9C" d="M61.2986 19.736C40.4118 46.8266 45.8969 112.341 76.2433 135.253"/>
<path stroke-width="2" stroke="#1ABC9C" d="M91.3745 22.059C87.2201 44.5315 93.9473 103.223 104.816 125.956"/>
<path stroke-width="2" stroke="#1ABC9C" d="M70.4227 19.3322C104.16 19.3322 131.424 45.3282 131.424 77.2912C131.424 109.254 104.16 135.25 70.4227 135.25C36.6853 135.25 9.42273 109.254 9.42267 77.2912C9.42267 45.3283 36.6853 19.3324 70.4227 19.3322Z"/>
<circle fill="#1ABC9C" r="1.40378" cy="50.1513" cx="90.31"/>
<circle fill="#1ABC9C" r="1.87171" cy="116.129" cx="116.514"/>
<circle fill="#1ABC9C" r="1.87171" cy="114.725" cx="112.771"/>
<circle fill="#1ABC9C" r="1.87171" cy="48.2796" cx="124.001"/>
<circle fill="#1ABC9C" r="1.87171" cy="24.4152" cx="43.0493"/>
<circle fill="#1ABC9C" r="1.87171" cy="60.4457" cx="11.2303"/>
<circle fill="#1ABC9C" r="1.87171" cy="106.303" cx="16.8454"/>
<circle fill="#1ABC9C" r="1.87171" cy="123.616" cx="32.287"/>
<circle fill="#1ABC9C" r="1.87171" cy="41.7286" cx="22.4605"/>
<circle fill="#1ABC9C" r="1.40378" cy="37.9851" cx="24.3322"/>
<circle fill="#1ABC9C" r="1.87171" cy="32.37" cx="31.3511"/>
<circle fill="#1ABC9C" r="1.40378" cy="22.5435" cx="49.1324"/>
<circle fill="#1ABC9C" r="1.40378" cy="28.6266" cx="36.4983"/>
<circle fill="#1ABC9C" r="0.935855" cy="27.6907" cx="41.1776"/>
<circle fill="#1ABC9C" r="0.935855" cy="27.2228" cx="43.9852"/>
<circle fill="#1ABC9C" r="1.40378" cy="42.6644" cx="25.736"/>
<circle fill="#1ABC9C" r="1.40378" cy="57.1702" cx="26.6718"/>
<circle fill="#1ABC9C" r="1.40378" cy="55.7664" cx="20.5888"/>
<circle fill="#1ABC9C" r="1.40378" cy="55.2985" cx="16.3775"/>
<circle fill="#1ABC9C" r="1.40378" cy="67.9325" cx="14.5058"/>
<circle fill="#1ABC9C" r="1.40378" cy="74.4835" cx="26.6718"/>
<circle fill="#1ABC9C" r="1.40378" cy="68.4004" cx="48.6645"/>
<circle fill="#1ABC9C" r="1.40378" cy="48.7475" cx="40.2418"/>
<circle fill="#1ABC9C" r="1.40378" cy="68.4004" cx="48.6645"/>
<circle fill="#1ABC9C" r="1.87171" cy="64.1891" cx="60.3627"/>
<circle fill="#1ABC9C" r="1.87171" cy="88.0534" cx="79.0798"/>
<circle fill="#1ABC9C" r="1.40378" cy="54.8305" cx="49.1324"/>
<circle fill="#1ABC9C" r="1.40378" cy="59.9777" cx="55.2154"/>
<circle fill="#1ABC9C" r="1.40378" cy="57.1702" cx="56.6192"/>
<circle fill="#1ABC9C" r="1.40378" cy="44.5361" cx="64.574"/>
<circle fill="#1ABC9C" r="1.40378" cy="48.2796" cx="70.1891"/>
<circle fill="#1ABC9C" r="1.40378" cy="45.9399" cx="85.6308"/>
<circle fill="#1ABC9C" r="1.40378" cy="51.0871" cx="81.8873"/>
<circle fill="#1ABC9C" r="1.40378" cy="55.2985" cx="79.0798"/>
<circle fill="#1ABC9C" r="1.40378" cy="41.7286" cx="79.5477"/>
<circle fill="#1ABC9C" r="1.40378" cy="70.7401" cx="51.472"/>
<circle fill="#1ABC9C" r="1.87171" cy="65.5929" cx="44.921"/>
<circle fill="#1ABC9C" r="1.40378" cy="71.6759" cx="21.9926"/>
<circle fill="#1ABC9C" r="1.87171" cy="96.944" cx="26.2039"/>
<circle fill="#1ABC9C" r="1.87171" cy="96.4761" cx="49.1324"/>
<circle fill="#1ABC9C" r="1.87171" cy="102.559" cx="50.0682"/>
<circle fill="#1ABC9C" r="1.87171" cy="121.744" cx="57.0872"/>
<circle fill="#1ABC9C" r="2.33964" cy="106.771" cx="38.838"/>
<circle fill="#1ABC9C" r="1.40378" cy="66.9967" cx="9.35856"/>
<circle fill="#1ABC9C" r="0.935855" cy="55.2985" cx="13.102"/>
<circle fill="#1ABC9C" r="2.33964" cy="46.4078" cx="35.0946"/>
<circle fill="#1ABC9C" r="2.33964" cy="58.574" cx="31.8191"/>
<circle fill="#1ABC9C" r="2.33964" cy="79.6307" cx="34.1587"/>
<circle fill="#1ABC9C" r="2.33964" cy="76.8231" cx="49.6003"/>
<circle fill="#1ABC9C" r="3.27549" cy="37.5172" cx="68.7854"/>
<circle fill="#1ABC9C" r="3.27549" cy="38.4531" cx="115.578"/>
<circle fill="#1ABC9C" r="2.33964" cy="38.921" cx="90.7779"/>
<circle fill="#1ABC9C" r="2.33964" cy="38.921" cx="90.7779"/>
<circle fill="#1ABC9C" r="3.27549" cy="74.9514" cx="92.6496"/>
<circle fill="#1ABC9C" r="2.33964" cy="77.2911" cx="70.6571"/>
<circle fill="#1ABC9C" r="2.33964" cy="74.0156" cx="32.287"/>
<circle fill="#1ABC9C" r="1.40378" cy="35.6455" cx="36.9663"/>
<circle fill="#1ABC9C" r="1.87171" cy="31.4342" cx="39.3059"/>
<circle fill="#1ABC9C" r="2.33964" cy="19.268" cx="62.7023"/>
<circle fill="#1ABC9C" r="1.87171" cy="30.0304" cx="106.22"/>
<circle fill="#1ABC9C" r="1.87171" cy="92.7327" cx="129.616"/>
<circle fill="#1ABC9C" r="1.87171" cy="105.367" cx="123.533"/>
<circle fill="#1ABC9C" r="1.87171" cy="125.488" cx="104.816"/>
<circle fill="#1ABC9C" r="1.87171" cy="128.763" cx="100.136"/>
<circle fill="#1ABC9C" r="1.87171" cy="134.378" cx="82.3552"/>
<circle fill="#1ABC9C" r="1.87171" cy="135.314" cx="75.8043"/>
<circle fill="#1ABC9C" r="1.87171" cy="135.782" cx="67.3816"/>
<circle fill="#1ABC9C" r="1.87171" cy="134.846" cx="62.2344"/>
<circle fill="#1ABC9C" r="1.87171" cy="130.635" cx="44.4531"/>
<circle fill="#1ABC9C" r="1.40378" cy="35.1776" cx="26.6718"/>
<circle fill="#1ABC9C" r="1.40378" cy="23.0115" cx="94.0534"/>
<circle fill="#1ABC9C" r="1.87171" cy="30.4983" cx="78.1439"/>
<circle fill="#1ABC9C" r="1.40378" cy="32.37" cx="54.2796"/>
<circle fill="#1ABC9C" r="1.40378" cy="25.819" cx="57.5551"/>
<circle fill="#1ABC9C" r="1.40378" cy="23.0115" cx="58.4909"/>
<circle fill="#1ABC9C" r="1.40378" cy="25.3511" cx="66.9137"/>
<circle fill="#1ABC9C" r="1.40378" cy="27.2228" cx="78.1439"/>
<circle fill="#1ABC9C" r="1.40378" cy="25.3511" cx="53.8117"/>
<circle fill="#1ABC9C" r="0.935855" cy="36.1134" cx="39.7739"/>
<circle fill="#1ABC9C" r="0.935855" cy="36.5814" cx="43.0493"/>
<circle fill="#1ABC9C" r="2.33964" cy="32.37" cx="45.8569"/>
<circle fill="#1ABC9C" r="1.40378" cy="38.921" cx="51.94"/>
<circle fill="#1ABC9C" r="1.40378" cy="23.4794" cx="91.2459"/>
<circle fill="#1ABC9C" r="1.40378" cy="111.918" cx="119.789"/>
<circle fill="#1ABC9C" r="1.40378" cy="118.937" cx="113.239"/>
<circle fill="#1ABC9C" r="1.40378" cy="122.212" cx="109.495"/>
<circle fill="#1ABC9C" r="1.40378" cy="128.295" cx="40.7097"/>
<circle fill="#1ABC9C" r="1.40378" cy="124.552" cx="61.7665"/>
<circle fill="#1ABC9C" r="1.40378" cy="121.744" cx="74.4005"/>
<circle fill="#1ABC9C" r="1.40378" cy="105.367" cx="74.8684"/>
<circle fill="#1ABC9C" r="1.87171" cy="91.3289" cx="68.7853"/>
<circle fill="#1ABC9C" r="1.40378" cy="100.687" cx="69.2533"/>
<circle fill="#1ABC9C" r="1.40378" cy="98.3478" cx="89.3742"/>
<circle fill="#1ABC9C" r="1.40378" cy="105.835" cx="102.944"/>
<circle fill="#1ABC9C" r="1.40378" cy="114.257" cx="109.027"/>
<circle fill="#1ABC9C" r="1.40378" cy="111.45" cx="109.495"/>
<circle fill="#1ABC9C" r="1.40378" cy="105.835" cx="97.7969"/>
<circle fill="#1ABC9C" r="1.40378" cy="110.046" cx="102.944"/>
<circle fill="#1ABC9C" r="1.87171" cy="89.9251" cx="89.8421"/>
<circle fill="#1ABC9C" r="1.87171" cy="98.8157" cx="96.3931"/>
<circle fill="#1ABC9C" r="2.33964" cy="131.103" cx="91.7138"/>
<circle fill="#1ABC9C" r="1.40378" cy="123.616" cx="77.676"/>
<circle fill="#1ABC9C" r="1.40378" cy="127.359" cx="91.7138"/>
<circle fill="#1ABC9C" r="1.40378" cy="129.699" cx="96.861"/>
<circle fill="#1ABC9C" r="1.87171" cy="126.891" cx="67.3816"/>
<circle fill="#1ABC9C" r="2.33964" cy="128.763" cx="77.676"/>
<circle fill="#1ABC9C" r="2.33964" cy="114.257" cx="90.7779"/>
<circle fill="#1ABC9C" r="1.40378" cy="133.91" cx="56.6192"/>
<circle fill="#1ABC9C" r="1.87171" cy="28.6266" cx="81.8873"/>
<circle fill="#1ABC9C" r="1.87171" cy="26.287" cx="70.1892"/>
<circle fill="#1ABC9C" r="1.40378" cy="31.9021" cx="90.31"/>
<circle fill="#1ABC9C" r="1.40378" cy="51.555" cx="104.816"/>
<circle fill="#1ABC9C" r="1.40378" cy="40.3248" cx="103.88"/>
<circle fill="#1ABC9C" r="1.40378" cy="35.1776" cx="96.3931"/>
<circle fill="#1ABC9C" r="1.40378" cy="49.2154" cx="102.476"/>
<circle fill="#1ABC9C" r="1.40378" cy="55.2985" cx="102.476"/>
<circle fill="#1ABC9C" r="1.40378" cy="60.4457" cx="99.2007"/>
<circle fill="#1ABC9C" r="1.40378" cy="98.3478" cx="110.899"/>
<circle fill="#1ABC9C" r="1.40378" cy="103.495" cx="117.45"/>
<circle fill="#1ABC9C" r="1.40378" cy="102.091" cx="121.661"/>
<circle fill="#1ABC9C" r="1.87171" cy="66.0608" cx="102.476"/>
<circle fill="#1ABC9C" r="1.87171" cy="95.5402" cx="107.623"/>
<circle fill="#1ABC9C" r="1.87171" cy="103.495" cx="110.899"/>
<circle fill="#1ABC9C" r="1.87171" cy="111.45" cx="114.642"/>
<circle fill="#1ABC9C" r="1.87171" cy="62.7853" cx="86.0987"/>
<circle fill="#1ABC9C" r="1.87171" cy="61.8495" cx="111.367"/>
<circle fill="#1ABC9C" r="1.87171" cy="86.1817" cx="121.193"/>
<circle fill="#1ABC9C" r="1.87171" cy="97.8799" cx="119.322"/>
<circle fill="#1ABC9C" r="1.87171" cy="49.6833" cx="112.303"/>
<circle fill="#1ABC9C" r="1.87171" cy="49.6833" cx="112.303"/>
<circle fill="#1ABC9C" r="1.40378" cy="87.5855" cx="13.102"/>
<circle fill="#1ABC9C" r="1.40378" cy="88.9893" cx="15.9095"/>
<circle fill="#1ABC9C" r="2.80757" cy="108.174" cx="56.6192"/>
<defs>
<linearGradient gradientUnits="userSpaceOnUse" y2="80" x2="519" y1="80" x1="149" id="paint0_linear_52_1654">
<stop stop-color="#1ABC9C"/>
<stop stop-color="#2980B9" offset="1"/>
</linearGradient>
<linearGradient gradientUnits="userSpaceOnUse" y2="118.102" x2="112.366" y1="41.0962" x1="27.0053" id="paint1_linear_52_1654">
<stop stop-color="#1ABC9C"/>
</linearGradient>
<linearGradient gradientUnits="userSpaceOnUse" y2="118.102" x2="112.366" y1="41.0962" x1="27.0053" id="paint2_linear_52_1654">
<stop stop-color="#1ABC9C"/>
</linearGradient>
</defs>
</svg>