<svg xmlns="http://www.w3.org/2000/svg" fill="none" viewBox="7.39923 16.69923 125.7 121.50000000000001" style="max-height: 500px" width="125.7" height="121.50000000000001">
<path stroke-width="2" stroke="url(#paint0_linear_52_1656)" d="M116.514 38.539C105.24 26.4324 88.7695 18.8001 70.4231 18.8001C36.4397 18.8001 8.89062 44.9874 8.89062 77.2911C8.89062 109.595 36.4397 135.782 70.4231 135.782C89.5415 135.782 106.623 127.494 117.909 114.491"/>
<path stroke-width="2" stroke="url(#paint1_linear_52_1656)" d="M116.514 38.539C105.24 26.4324 88.7695 18.8001 70.4231 18.8001C36.4397 18.8001 8.89062 44.9874 8.89062 77.2911C8.89062 109.595 36.4397 135.782 70.4231 135.782C89.5415 135.782 106.623 127.494 117.909 114.491"/>
<path stroke-width="2" stroke="#1ABC9C" d="M26.4573 35.7144C71.359 31.6683 116.28 81.2685 99.6684 128.763"/>
<path stroke-width="2" stroke="#1ABC9C" d="M49.4712 22.5454C89.1417 21.379 131.864 69.3529 119.789 111.918"/>
<path stroke-width="2" stroke="#1ABC9C" d="M31.329 32.5561C82.3553 23.8089 128.176 73.0214 104.816 125.956"/>
<path stroke-width="2" stroke="#1ABC9C" d="M36.3661 28.7996C97.4983 11.9481 144.365 59.9221 109.495 121.744"/>
<path stroke-width="2" stroke="#1ABC9C" d="M21.5247 41.7286C53.3142 46.639 94.914 95.1593 91.5529 130.732"/>
<path stroke-width="2" stroke="#1ABC9C" d="M13.5699 55.2985C48.0053 54.8919 85.853 97.5792 76.0264 134.679"/>
<path stroke-width="2" stroke="#1ABC9C" d="M9.35857 66.9967C33.1718 70.9115 64.6317 107.665 62.3694 134.372"/>
<path stroke-width="2" stroke="#1ABC9C" d="M9.82652 86.6496C24.3029 90.1267 44.8104 114.361 44.6203 130.871"/>
<path stroke-width="2" stroke="#1ABC9C" d="M123.992 48.2861C127.225 57.3539 130.65 82.647 129.616 93.2006"/>
<path stroke-width="2" stroke="#1ABC9C" d="M11.5116 60.4384C10.601 70.3241 13.6129 96.4807 17.3133 106.771"/>
<path stroke-width="2" stroke="#1ABC9C" d="M116.046 37.9852C107.652 53.247 111.165 91.3945 124.483 105.365"/>
<path stroke-width="2" stroke="#1ABC9C" d="M41.086 27.2331C31.6131 65.5166 69.2976 119.582 113.238 118.937"/>
<path stroke-width="2" stroke="#1ABC9C" d="M24.2529 38.4531C8.81357 81.4769 45.8244 136.197 96.5128 130.293"/>
<path stroke-width="2" stroke="#1ABC9C" d="M26.8167 35.576C18.9519 73.093 57.462 127.863 100.136 128.763"/>
<path stroke-width="2" stroke="#1ABC9C" d="M43.5172 24.8832C47.2423 52.7904 86.5548 105.597 115.688 116.61"/>
<path stroke-width="2" stroke="#1ABC9C" d="M67.3816 19.268C62.7393 46.967 88.7786 102.432 116.804 115.981"/>
<path stroke-width="2" stroke="#1ABC9C" d="M79.2547 19.6569C73.0389 45.5237 96.1156 95.344 123.533 106.303"/>
<path stroke-width="2" stroke="#1ABC9C" d="M106.534 31.2887C98.0877 50.1945 102.929 97.9374 117.45 115.661"/>
<path stroke-width="2" stroke="#1ABC9C" d="M22.1064 41.3064C8.96742 60.3837 13.0895 107.037 32.7549 123.616"/>
<path stroke-width="2" stroke="#1ABC9C" d="M108.798 31.5129C125.368 46.5422 133.065 92.1776 119.322 112.854"/>
<path stroke-width="2" stroke="#1ABC9C" d="M65.9778 18.8001C28.5851 34.3783 10.7273 95.452 41.3239 128.691"/>
<path stroke-width="2" stroke="#1ABC9C" d="M93.9396 23.197C50.9911 37.8918 31.7012 100.312 67.8909 135.79"/>
<path stroke-width="2" stroke="#1ABC9C" d="M106.22 29.5624C71.8629 44.6875 55.0054 102.906 82.7324 134.253"/>
<path stroke-width="2" stroke="#1ABC9C" d="M117.918 39.3889C93.6996 53.7111 79.7895 104.234 97.5963 129.969"/>
<path stroke-width="2" stroke="#1ABC9C" d="M42.5069 25.2627C24.7625 50.6941 30.4506 112.536 57.1128 134.337"/>
<path stroke-width="2" stroke="#1ABC9C" d="M61.2986 19.736C40.4118 46.8266 45.8969 112.341 76.2433 135.253"/>
<path stroke-width="2" stroke="#1ABC9C" d="M91.3745 22.059C87.2201 44.5315 93.9473 103.223 104.816 125.956"/>
<path stroke-width="2" stroke="#1ABC9C" d="M70.4227 19.3322C104.16 19.3322 131.424 45.3282 131.424 77.2912C131.424 109.254 104.16 135.25 70.4227 135.25C36.6853 135.25 9.42273 109.254 9.42267 77.2912C9.42267 45.3283 36.6853 19.3324 70.4227 19.3322Z"/>
<circle fill="#1ABC9C" r="1.40378" cy="50.1513" cx="90.31"/>
<circle fill="#1ABC9C" r="1.87171" cy="116.129" cx="116.514"/>
<circle fill="#1ABC9C" r="1.87171" cy="114.725" cx="112.771"/>
<circle fill="#1ABC9C" r="1.87171" cy="48.2796" cx="124.001"/>
<circle fill="#1ABC9C" r="1.87171" cy="24.4152" cx="43.0493"/>
<circle fill="#1ABC9C" r="1.87171" cy="60.4457" cx="11.2303"/>
<circle fill="#1ABC9C" r="1.87171" cy="106.303" cx="16.8454"/>
<circle fill="#1ABC9C" r="1.87171" cy="123.616" cx="32.287"/>
<circle fill="#1ABC9C" r="1.87171" cy="41.7286" cx="22.4605"/>
<circle fill="#1ABC9C" r="1.40378" cy="37.9851" cx="24.3322"/>
<circle fill="#1ABC9C" r="1.87171" cy="32.37" cx="31.3511"/>
<circle fill="#1ABC9C" r="1.40378" cy="22.5435" cx="49.1324"/>
<circle fill="#1ABC9C" r="1.40378" cy="28.6266" cx="36.4983"/>
<circle fill="#1ABC9C" r="0.935855" cy="27.6907" cx="41.1776"/>
<circle fill="#1ABC9C" r="0.935855" cy="27.2228" cx="43.9852"/>
<circle fill="#1ABC9C" r="1.40378" cy="42.6644" cx="25.736"/>
<circle fill="#1ABC9C" r="1.40378" cy="57.1702" cx="26.6718"/>
<circle fill="#1ABC9C" r="1.40378" cy="55.7664" cx="20.5888"/>
<circle fill="#1ABC9C" r="1.40378" cy="55.2985" cx="16.3775"/>
<circle fill="#1ABC9C" r="1.40378" cy="67.9325" cx="14.5058"/>
<circle fill="#1ABC9C" r="1.40378" cy="74.4835" cx="26.6718"/>
<circle fill="#1ABC9C" r="1.40378" cy="68.4004" cx="48.6645"/>
<circle fill="#1ABC9C" r="1.40378" cy="48.7475" cx="40.2418"/>
<circle fill="#1ABC9C" r="1.40378" cy="68.4004" cx="48.6645"/>
<circle fill="#1ABC9C" r="1.87171" cy="64.1891" cx="60.3627"/>
<circle fill="#1ABC9C" r="1.87171" cy="88.0534" cx="79.0798"/>
<circle fill="#1ABC9C" r="1.40378" cy="54.8305" cx="49.1324"/>
<circle fill="#1ABC9C" r="1.40378" cy="59.9777" cx="55.2154"/>
<circle fill="#1ABC9C" r="1.40378" cy="57.1702" cx="56.6192"/>
<circle fill="#1ABC9C" r="1.40378" cy="44.5361" cx="64.574"/>
<circle fill="#1ABC9C" r="1.40378" cy="48.2796" cx="70.1891"/>
<circle fill="#1ABC9C" r="1.40378" cy="45.9399" cx="85.6308"/>
<circle fill="#1ABC9C" r="1.40378" cy="51.0871" cx="81.8873"/>
<circle fill="#1ABC9C" r="1.40378" cy="55.2985" cx="79.0798"/>
<circle fill="#1ABC9C" r="1.40378" cy="41.7286" cx="79.5477"/>
<circle fill="#1ABC9C" r="1.40378" cy="70.7401" cx="51.472"/>
<circle fill="#1ABC9C" r="1.87171" cy="65.5929" cx="44.921"/>
<circle fill="#1ABC9C" r="1.40378" cy="71.6759" cx="21.9926"/>
<circle fill="#1ABC9C" r="1.87171" cy="96.944" cx="26.2039"/>
<circle fill="#1ABC9C" r="1.87171" cy="96.4761" cx="49.1324"/>
<circle fill="#1ABC9C" r="1.87171" cy="102.559" cx="50.0682"/>
<circle fill="#1ABC9C" r="1.87171" cy="121.744" cx="57.0872"/>
<circle fill="#1ABC9C" r="2.33964" cy="106.771" cx="38.838"/>
<circle fill="#1ABC9C" r="1.40378" cy="66.9967" cx="9.35856"/>
<circle fill="#1ABC9C" r="0.935855" cy="55.2985" cx="13.102"/>
<circle fill="#1ABC9C" r="2.33964" cy="46.4078" cx="35.0946"/>
<circle fill="#1ABC9C" r="2.33964" cy="58.574" cx="31.8191"/>
<circle fill="#1ABC9C" r="2.33964" cy="79.6307" cx="34.1587"/>
<circle fill="#1ABC9C" r="2.33964" cy="76.8231" cx="49.6003"/>
<circle fill="#1ABC9C" r="3.27549" cy="37.5172" cx="68.7854"/>
<circle fill="#1ABC9C" r="3.27549" cy="38.4531" cx="115.578"/>
<circle fill="#1ABC9C" r="2.33964" cy="38.921" cx="90.7779"/>
<circle fill="#1ABC9C" r="2.33964" cy="38.921" cx="90.7779"/>
<circle fill="#1ABC9C" r="3.27549" cy="74.9514" cx="92.6496"/>
<circle fill="#1ABC9C" r="2.33964" cy="77.2911" cx="70.6571"/>
<circle fill="#1ABC9C" r="2.33964" cy="74.0156" cx="32.287"/>
<circle fill="#1ABC9C" r="1.40378" cy="35.6455" cx="36.9663"/>
<circle fill="#1ABC9C" r="1.87171" cy="31.4342" cx="39.3059"/>
<circle fill="#1ABC9C" r="2.33964" cy="19.268" cx="62.7023"/>
<circle fill="#1ABC9C" r="1.87171" cy="30.0304" cx="106.22"/>
<circle fill="#1ABC9C" r="1.87171" cy="92.7327" cx="129.616"/>
<circle fill="#1ABC9C" r="1.87171" cy="105.367" cx="123.533"/>
<circle fill="#1ABC9C" r="1.87171" cy="125.488" cx="104.816"/>
<circle fill="#1ABC9C" r="1.87171" cy="128.763" cx="100.136"/>
<circle fill="#1ABC9C" r="1.87171" cy="134.378" cx="82.3552"/>
<circle fill="#1ABC9C" r="1.87171" cy="135.314" cx="75.8043"/>
<circle fill="#1ABC9C" r="1.87171" cy="135.782" cx="67.3816"/>
<circle fill="#1ABC9C" r="1.87171" cy="134.846" cx="62.2344"/>
<circle fill="#1ABC9C" r="1.87171" cy="130.635" cx="44.4531"/>
<circle fill="#1ABC9C" r="1.40378" cy="35.1776" cx="26.6718"/>
<circle fill="#1ABC9C" r="1.40378" cy="23.0115" cx="94.0534"/>
<circle fill="#1ABC9C" r="1.87171" cy="30.4983" cx="78.1439"/>
<circle fill="#1ABC9C" r="1.40378" cy="32.37" cx="54.2796"/>
<circle fill="#1ABC9C" r="1.40378" cy="25.819" cx="57.5551"/>
<circle fill="#1ABC9C" r="1.40378" cy="23.0115" cx="58.4909"/>
<circle fill="#1ABC9C" r="1.40378" cy="25.3511" cx="66.9137"/>
<circle fill="#1ABC9C" r="1.40378" cy="27.2228" cx="78.1439"/>
<circle fill="#1ABC9C" r="1.40378" cy="25.3511" cx="53.8117"/>
<circle fill="#1ABC9C" r="0.935855" cy="36.1134" cx="39.7739"/>
<circle fill="#1ABC9C" r="0.935855" cy="36.5814" cx="43.0493"/>
<circle fill="#1ABC9C" r="2.33964" cy="32.37" cx="45.8569"/>
<circle fill="#1ABC9C" r="1.40378" cy="38.921" cx="51.94"/>
<circle fill="#1ABC9C" r="1.40378" cy="23.4794" cx="91.2459"/>
<circle fill="#1ABC9C" r="1.40378" cy="111.918" cx="119.789"/>
<circle fill="#1ABC9C" r="1.40378" cy="118.937" cx="113.239"/>
<circle fill="#1ABC9C" r="1.40378" cy="122.212" cx="109.495"/>
<circle fill="#1ABC9C" r="1.40378" cy="128.295" cx="40.7097"/>
<circle fill="#1ABC9C" r="1.40378" cy="124.552" cx="61.7665"/>
<circle fill="#1ABC9C" r="1.40378" cy="121.744" cx="74.4005"/>
<circle fill="#1ABC9C" r="1.40378" cy="105.367" cx="74.8684"/>
<circle fill="#1ABC9C" r="1.87171" cy="91.3289" cx="68.7853"/>
<circle fill="#1ABC9C" r="1.40378" cy="100.687" cx="69.2533"/>
<circle fill="#1ABC9C" r="1.40378" cy="98.3478" cx="89.3742"/>
<circle fill="#1ABC9C" r="1.40378" cy="105.835" cx="102.944"/>
<circle fill="#1ABC9C" r="1.40378" cy="114.257" cx="109.027"/>
<circle fill="#1ABC9C" r="1.40378" cy="111.45" cx="109.495"/>
<circle fill="#1ABC9C" r="1.40378" cy="105.835" cx="97.7969"/>
<circle fill="#1ABC9C" r="1.40378" cy="110.046" cx="102.944"/>
<circle fill="#1ABC9C" r="1.87171" cy="89.9251" cx="89.8421"/>
<circle fill="#1ABC9C" r="1.87171" cy="98.8157" cx="96.3931"/>
<circle fill="#1ABC9C" r="2.33964" cy="131.103" cx="91.7138"/>
<circle fill="#1ABC9C" r="1.40378" cy="123.616" cx="77.676"/>
<circle fill="#1ABC9C" r="1.40378" cy="127.359" cx="91.7138"/>
<circle fill="#1ABC9C" r="1.40378" cy="129.699" cx="96.861"/>
<circle fill="#1ABC9C" r="1.87171" cy="126.891" cx="67.3816"/>
<circle fill="#1ABC9C" r="2.33964" cy="128.763" cx="77.676"/>
<circle fill="#1ABC9C" r="2.33964" cy="114.257" cx="90.7779"/>
<circle fill="#1ABC9C" r="1.40378" cy="133.91" cx="56.6192"/>
<circle fill="#1ABC9C" r="1.87171" cy="28.6266" cx="81.8873"/>
<circle fill="#1ABC9C" r="1.87171" cy="26.287" cx="70.1892"/>
<circle fill="#1ABC9C" r="1.40378" cy="31.9021" cx="90.31"/>
<circle fill="#1ABC9C" r="1.40378" cy="51.555" cx="104.816"/>
<circle fill="#1ABC9C" r="1.40378" cy="40.3248" cx="103.88"/>
<circle fill="#1ABC9C" r="1.40378" cy="35.1776" cx="96.3931"/>
<circle fill="#1ABC9C" r="1.40378" cy="49.2154" cx="102.476"/>
<circle fill="#1ABC9C" r="1.40378" cy="55.2985" cx="102.476"/>
<circle fill="#1ABC9C" r="1.40378" cy="60.4457" cx="99.2007"/>
<circle fill="#1ABC9C" r="1.40378" cy="98.3478" cx="110.899"/>
<circle fill="#1ABC9C" r="1.40378" cy="103.495" cx="117.45"/>
<circle fill="#1ABC9C" r="1.40378" cy="102.091" cx="121.661"/>
<circle fill="#1ABC9C" r="1.87171" cy="66.0608" cx="102.476"/>
<circle fill="#1ABC9C" r="1.87171" cy="95.5402" cx="107.623"/>
<circle fill="#1ABC9C" r="1.87171" cy="103.495" cx="110.899"/>
<circle fill="#1ABC9C" r="1.87171" cy="111.45" cx="114.642"/>
<circle fill="#1ABC9C" r="1.87171" cy="62.7853" cx="86.0987"/>
<circle fill="#1ABC9C" r="1.87171" cy="61.8495" cx="111.367"/>
<circle fill="#1ABC9C" r="1.87171" cy="86.1817" cx="121.193"/>
<circle fill="#1ABC9C" r="1.87171" cy="97.8799" cx="119.322"/>
<circle fill="#1ABC9C" r="1.87171" cy="49.6833" cx="112.303"/>
<circle fill="#1ABC9C" r="1.87171" cy="49.6833" cx="112.303"/>
<circle fill="#1ABC9C" r="1.40378" cy="87.5855" cx="13.102"/>
<circle fill="#1ABC9C" r="1.40378" cy="88.9893" cx="15.9095"/>
<circle fill="#1ABC9C" r="2.80757" cy="108.174" cx="56.6192"/>
<defs>
<linearGradient gradientUnits="userSpaceOnUse" y2="118.102" x2="112.366" y1="41.0962" x1="27.0053" id="paint0_linear_52_1656">
<stop stop-color="#1ABC9C"/>
</linearGradient>
<linearGradient gradientUnits="userSpaceOnUse" y2="118.102" x2="112.366" y1="41.0962" x1="27.0053" id="paint1_linear_52_1656">
<stop stop-color="#1ABC9C"/>
</linearGradient>
</defs>
</svg>